# xmcd
#
# Track frame offsets: 
#        150
#        24180
#        48537
#        72962
#        91107
#        116177
#        141397
#        159967
#        180102
#        199915
#
# Disc length: 3039 seconds
#
# Revision: 0
# Processed by: cddbd v1.5.2PL0 Copyright (c) Steve Scherf et al.
# Submitted via: ExactAudioCopy v1.0b3
#
DISCID=7f0bdd0a
DTITLE=Che Linh - Hat Cho Nguoi Tinh Phu 3
DYEAR=1994
DGENRE=
TTITLE0=Neu mot ngay
TTITLE1=Bai cuoi cho nguoi tinh
TTITLE2=Huong Lan - Hoa hoc tro
TTITLE3=Dem nay ai dua em
TTITLE4=Chuyen tinh buon
TTITLE5=Sai Gon niem nho khong ten
TTITLE6=Cho hoi vi sao toi buon
TTITLE7=Huong Lan - Gio cuon may troi
TTITLE8=Nhu giot sau roi
TTITLE9=Tra lai em yeu
EXTD=
EXTT0=
EXTT1=
EXTT2=
EXTT3=
EXTT4=
EXTT5=
EXTT6=
EXTT7=
EXTT8=
EXTT9=
PLAYORDER=
